<?xml version="1.0" encoding="UTF-8"?>
<svg version="1.1" xmlns="http://www.w3.org/2000/svg" width="512" height="512">
<path d="M0 0 C17.91553191 14.37470407 28.7643082 33.25958932 32 56 C32.09753407 58.51835438 32.14529773 61.03887024 32.15771484 63.55908203 C32.16279556 64.29170761 32.16787628 65.02433319 32.17311096 65.77915955 C32.18376497 67.36198887 32.19240438 68.94483279 32.19923019 70.52768326 C32.21110599 73.04350647 32.23058242 75.55916462 32.25234985 78.07492065 C32.31366022 85.22534588 32.36784337 92.37575324 32.40136719 99.52636719 C32.42246489 103.91010105 32.45788749 108.29353101 32.50212479 112.67708969 C32.51616653 114.33620471 32.5249801 115.99537347 32.52817917 117.65454483 C32.55332808 129.45309918 33.18150915 140.52374552 38.875 151.1875 C39.39320313 152.17878906 39.91140625 153.17007813 40.4453125 154.19140625 C41.41472272 155.94267748 42.40601002 157.68222995 43.4296875 159.40234375 C49.46290712 169.55885843 49.95045991 179.41092655 47.3515625 190.85546875 C44.44380027 200.31236519 37.75423359 208.33107542 29 213 C22.64561936 215.4275162 16.73792117 215.93469353 10 215 C7.45790447 213.79159529 5.46399472 212.38173626 3.24609375 210.65625 C-2.95343004 206.08477507 -10.79417049 203.5832219 -18 201 C-18.73312207 195.78668748 -19.03538711 191.19278333 -18 186 C-14.53218135 182.37918935 -10.37018342 180.38422568 -6 178 C4.09772538 170.25497594 10.89662052 157.42906058 13 145 C13.93863859 137.82804591 14.20785122 130.75585258 14.31640625 123.52734375 C14.3475779 121.78185997 14.3475779 121.78185997 14.37937927 120.00111389 C14.44434309 116.313298 14.50351068 112.6254158 14.5625 108.9375 C14.60573587 106.42512357 14.64935171 103.91275365 14.69335938 101.40039062 C14.79996939 95.26699554 14.90183082 89.13353568 15 83 C13.30025024 83.0314209 13.30025024 83.0314209 11.56616211 83.06347656 C7.28895124 83.13686969 3.0117937 83.18215377 -1.26586914 83.21972656 C-3.10353001 83.23961918 -4.94112951 83.26674332 -6.77856445 83.30175781 C-27.55568574 83.6872542 -45.23009555 80.0185066 -60.88549805 65.26391602 C-67.62860454 58.60707043 -72.88118037 50.98839942 -76 42 C-76 41.34 -76 40.68 -76 40 C-76.83144531 40.28875 -77.66289062 40.5775 -78.51953125 40.875 C-79.60621094 41.24625 -80.69289063 41.6175 -81.8125 42 C-82.89144531 42.37125 -83.97039062 42.7425 -85.08203125 43.125 C-88 44 -88 44 -91 44 C-89.02 48.62 -87.04 53.24 -85 58 C-88.465 58.99 -88.465 58.99 -92 60 C-102.84973131 63.77148815 -108.85412133 69.65749112 -113.87109375 79.9375 C-116.31150619 86.55785763 -116.17169197 93.43698503 -116.203125 100.40234375 C-116.21167511 101.8953878 -116.21167511 101.8953878 -116.22039795 103.41859436 C-116.22981486 105.52229766 -116.23636872 107.6260155 -116.24023438 109.72973633 C-116.24987448 112.89627006 -116.28090285 116.06213568 -116.3125 119.22851562 C-116.42420336 140.23163786 -114.58755495 158.98678285 -99.26953125 174.87890625 C-95.30943599 178.57999356 -91.28247177 182.00819212 -86.28515625 184.1796875 C-84 186 -84 186 -83.51171875 189.57421875 C-83.54485752 190.94616376 -83.60436405 192.3176753 -83.6875 193.6875 C-83.71005859 194.38939453 -83.73261719 195.09128906 -83.75585938 195.81445312 C-83.81468353 197.5438833 -83.90436611 199.27221438 -84 201 C-84.95519531 201.36351562 -85.91039062 201.72703125 -86.89453125 202.1015625 C-100.42663066 206.92510763 -100.42663066 206.92510763 -112 215 C-121.26910945 216.14367778 -128.5458931 214.88429016 -136.1171875 209.4921875 C-143.71449014 203.32833819 -148.8418732 195.70494462 -150.51953125 185.9921875 C-151.67739051 173.67256499 -149.06031773 164.66070249 -142.40087891 154.3972168 C-135.44092448 143.14543863 -134.41595463 130.45506618 -134.48357964 117.58187675 C-134.49647412 115.11069738 -134.48468501 112.64059276 -134.46754456 110.16944885 C-134.44110855 105.8101641 -134.43523862 101.45115309 -134.43664551 97.09179688 C-134.4388915 90.11511452 -134.42426434 83.1387704 -134.38105965 76.16221809 C-134.37138103 73.75504453 -134.37985102 71.34842921 -134.38975525 68.94126892 C-134.35496769 45.13776697 -126.65960027 24.11092739 -109.9453125 6.85546875 C-80.39612994 -22.44861442 -32.78285682 -25.11813255 0 0 Z " fill="#000000" transform="translate(307,132)"/>
<path d="M0 0 C3.41707827 2.10733819 6.04557665 4.48378849 8.94140625 7.2578125 C23.03502193 20.57541967 43.94497699 23.70620283 62.4375 24.55078125 C63.35982422 24.59481079 64.28214844 24.63884033 65.23242188 24.6842041 C67.48819016 24.79158685 69.74403709 24.89680127 72 25 C72.0997571 30.90408544 72.17188395 36.80766757 72.21972656 42.71240234 C72.2396956 44.71607014 72.26688063 46.71968078 72.30175781 48.72314453 C72.56815726 64.43287682 71.89896752 77.63923802 61 90 C57.44337954 93.27053033 53.61798506 95.98363913 49.53125 98.55078125 C48.34015625 99.29908203 48.34015625 99.29908203 47.125 100.0625 C46.40570313 100.48660156 45.68640625 100.91070312 44.9453125 101.34765625 C41.67372913 104.12653128 40.22832411 107.07757473 39.72021484 111.35571289 C39.596629 114.07739859 39.59080578 116.77586021 39.625 119.5 C39.61339844 120.42425781 39.60179687 121.34851563 39.58984375 122.30078125 C39.61252944 127.58654635 39.90731306 131.5162792 43 136 C46.6712475 139.62624097 50.46038311 141.11751207 55.3125 142.75 C55.95767578 142.97042969 56.60285156 143.19085938 57.26757812 143.41796875 C58.84197484 143.95442985 60.42058004 144.47851357 62 145 C62 145.99 62 146.98 62 148 C42.47076283 159.21207969 19.48318737 160.49620631 -2 155 C-14.43650174 151.11763733 -14.43650174 151.11763733 -19 146 C-17.66811929 145.39263773 -16.3343905 144.78932815 -15 144.1875 C-13.77023438 143.63255859 -13.77023438 143.63255859 -12.515625 143.06640625 C-10.27903577 142.1182869 -8.06167393 141.36173577 -5.75 140.625 C-1.44230858 139.06013006 0.42338949 136.7477971 3 133 C4.46231465 128.61305606 4.26546943 124.34645393 4.3125 119.75 C4.34150391 118.82058594 4.37050781 117.89117187 4.40039062 116.93359375 C4.45756163 110.71514738 3.78961443 107.00152159 0 102 C-2.46243054 99.96947298 -2.46243054 99.96947298 -5.25 98.5 C-16.68680937 91.63182287 -23.54584904 83.861671 -27.34757996 70.92433167 C-28.52074211 65.66588617 -28.46780845 60.42221611 -28.46875 55.0546875 C-28.47636353 53.84483185 -28.48397705 52.6349762 -28.49182129 51.38845825 C-28.50257106 48.84541884 -28.50549641 46.30233546 -28.50097656 43.75927734 C-28.50000104 39.87913567 -28.54175336 36.00095228 -28.5859375 32.12109375 C-28.59114288 29.64062909 -28.59383272 27.16015762 -28.59375 24.6796875 C-28.61014526 23.52741669 -28.62654053 22.37514587 -28.64343262 21.18795776 C-28.583551 14.18472507 -27.67269555 9.36911302 -23 4 C-16.95459463 -1.37369366 -7.7033657 -1.97669823 0 0 Z M9 62 C5.7 64.97 2.4 67.94 -1 71 C1.81375619 76.62751238 5.98072127 78.45165193 11.4375 81.25 C20.75109798 83.97593111 29.36247647 83.16271522 37.9375 78.5625 C40.68196946 76.97359663 42.83929003 75.32327122 45 73 C43.55218207 69.55571735 41.72305391 67.63869038 38.875 65.25 C38.15054688 64.63640625 37.42609375 64.0228125 36.6796875 63.390625 C35.84824219 62.70226562 35.84824219 62.70226562 35 62 C34.09121094 62.45052734 34.09121094 62.45052734 33.1640625 62.91015625 C26.84093054 65.77988537 21.79301083 66.82973034 15 65 C13.02 64.01 11.04 63.02 9 62 Z " fill="#000000" transform="translate(234,206)"/>
<path d="M0 0 C12.52268436 9.73986561 20.95389014 23.19910136 23.49609375 38.94140625 C23.79423513 43.21299462 23.82374791 47.47295705 23.83203125 51.75390625 C23.84201645 53.56725464 23.84201645 53.56725464 23.85220337 55.41723633 C23.86228591 57.96206144 23.86702176 60.50691275 23.86669922 63.05175781 C23.87108028 66.92948053 23.90747103 70.80607134 23.9453125 74.68359375 C23.95118008 77.16536072 23.95514987 79.64713306 23.95703125 82.12890625 C23.97140228 83.27915283 23.98577332 84.42939941 24.00057983 85.61450195 C23.95538306 93.63126985 22.57163922 99.71163509 17.8203125 106.24609375 C11.72309053 112.0959344 7.12448248 114.08513497 -1.31640625 114.44140625 C-8.97388425 114.24610394 -14.95612457 112.60744732 -20.37890625 107.00390625 C-24.89125901 101.27668929 -26.65161593 96.18587397 -27.50390625 88.94140625 C-29.45296875 89.25078125 -29.45296875 89.25078125 -31.44140625 89.56640625 C-38.36664559 90.29366493 -43.96403938 89.30305004 -49.75390625 85.31640625 C-54.50781958 81.45444473 -57.57528385 76.72727346 -59.50390625 70.94140625 C-59.77733555 66.77939698 -59.81733988 62.61730694 -59.85400391 58.44702148 C-59.87045667 57.08063599 -59.89760412 55.71433269 -59.93603516 54.34838867 C-60.18159297 45.55635128 -59.88446462 38.20685654 -54.50390625 30.94140625 C-47.26910155 24.12117638 -40.80713778 22.44523951 -30.9453125 22.640625 C-22.68569267 23.3625214 -18.52651614 27.48563494 -13.16796875 33.52734375 C-8.94451947 39.65431946 -9.23676713 45.91415952 -9.265625 53.0703125 C-9.25021377 55.26107396 -9.23391077 57.4518293 -9.21679688 59.64257812 C-9.20031004 63.08143666 -9.19143891 66.51984519 -9.19848633 69.95874023 C-9.20110208 73.28811246 -9.17302691 76.61612216 -9.140625 79.9453125 C-9.15593513 81.48609215 -9.15593513 81.48609215 -9.17155457 83.05799866 C-9.10604147 87.83335065 -9.0588665 90.18880318 -6.15942383 94.12084961 C-3.61016952 96.21469986 -3.61016952 96.21469986 -0.37890625 96.06640625 C3.34951963 94.60745699 3.87734175 93.58873948 5.49609375 89.94140625 C5.92962981 86.73212388 5.9165345 83.55491738 5.89453125 80.3203125 C5.89740143 79.38396469 5.90027161 78.44761688 5.90322876 77.4828949 C5.90526779 75.50006506 5.89974922 73.51721504 5.88720703 71.53442383 C5.87131362 68.54525871 5.88697651 65.55747952 5.90625 62.56835938 C5.92614238 46.06792788 5.08734109 31.83491347 -6.31640625 18.8828125 C-14.71763885 10.74411842 -25.93693503 7.59198912 -37.34765625 7.73046875 C-48.01520379 8.44339891 -57.48357654 13.43837753 -64.81640625 21.12890625 C-73.65352211 31.70124526 -74.69916364 42.37435105 -74.75390625 55.62890625 C-74.77453125 56.85802734 -74.79515625 58.08714844 -74.81640625 59.35351562 C-74.87384291 72.81523392 -71.48389921 83.69669694 -62.25390625 93.75390625 C-54.296807 101.12159074 -44.91484713 103.00211334 -34.50390625 104.94140625 C-34.50390625 110.88140625 -34.50390625 116.82140625 -34.50390625 122.94140625 C-48.79290804 121.5864147 -59.79402828 118.64754799 -71.50390625 109.94140625 C-72.51453125 109.21953125 -73.52515625 108.49765625 -74.56640625 107.75390625 C-84.26904854 99.31799782 -91.4656144 85.66804645 -92.70620728 72.85142517 C-92.79796598 70.66713319 -92.83334861 68.49089104 -92.83984375 66.3046875 C-92.84650055 65.50338913 -92.85315735 64.70209076 -92.86001587 63.87651062 C-92.87007935 62.18991365 -92.87483486 60.50327736 -92.87451172 58.81665039 C-92.87886585 56.27746511 -92.91519824 53.74004854 -92.953125 51.20117188 C-93.0701968 34.51808324 -88.7233578 22.4611785 -79.31640625 8.75390625 C-57.86525213 -12.69724787 -25.50238274 -17.54472988 0 0 Z " fill="#000000" transform="translate(125.50390625,10.05859375)"/>
<path d="M0 0 C1.46671394 -0.00525696 1.46671394 -0.00525696 2.96305847 -0.01062012 C6.19093961 -0.01941298 9.41860106 -0.01359683 12.64648438 -0.00683594 C14.89180544 -0.00818329 17.13712622 -0.01012441 19.38244629 -0.01263428 C24.08653544 -0.01558223 28.79054859 -0.0112984 33.49462891 -0.00195312 C39.52392882 0.00944115 45.55305067 0.00287993 51.58234406 -0.00909805 C56.21829571 -0.01632548 60.85420516 -0.01402465 65.49015808 -0.00884247 C67.713313 -0.00750842 69.93647175 -0.00914513 72.15962219 -0.01380157 C75.26667429 -0.0188812 78.37343811 -0.01113614 81.48046875 0 C82.85835823 -0.00607269 82.85835823 -0.00607269 84.26408386 -0.01226807 C89.56472385 0.0229227 93.87316106 0.17424052 98.0300293 3.83496094 C99.84619709 7.47242591 99.64817052 11.06470348 99.60351562 15.04003906 C99.60426338 16.31578796 99.60426338 16.31578796 99.60502625 17.61730957 C99.60268924 19.41270284 99.59298274 21.20809961 99.57641602 23.00341797 C99.55281854 25.74899646 99.55585848 28.49360362 99.5625 31.23925781 C99.55692304 32.98535734 99.54981304 34.73145279 99.54101562 36.47753906 C99.54192703 37.2974231 99.54283844 38.11730713 99.54377747 38.96203613 C99.45105875 46.428513 99.45105875 46.428513 97.24023438 49.25878906 C93.98141919 51.30050583 91.36186154 51.52708605 87.55371094 51.57763672 C86.4128302 51.59750641 85.27194946 51.6173761 84.09649658 51.6378479 C82.25725616 51.65517471 82.25725616 51.65517471 80.38085938 51.67285156 C79.1213446 51.69221771 77.86182983 51.71158386 76.56414795 51.73153687 C73.22362487 51.78117321 69.88321113 51.82245184 66.5425415 51.85968018 C63.1304739 51.89976246 59.71857262 51.95083545 56.30664062 52.00097656 C49.61794557 52.09703943 42.92917793 52.18208581 36.24023438 52.25878906 C35.79631348 53.15710449 35.35239258 54.05541992 34.89501953 54.98095703 C33.24787537 58.31142957 31.59544789 61.63925695 29.94140625 64.96630859 C29.22609238 66.40699746 28.51221581 67.84840088 27.79980469 69.29052734 C26.77590394 71.36257162 25.74687187 73.43199618 24.71679688 75.50097656 C24.39901276 76.14686737 24.08122864 76.79275818 23.7538147 77.45822144 C22.44179724 80.08291665 21.33020305 82.16882039 19.24023438 84.25878906 C18.25023437 84.25878906 17.26023437 84.25878906 16.24023438 84.25878906 C14.75343713 81.28519457 15.12910833 78.59579727 15.14257812 75.28222656 C15.14399307 74.59697906 15.14540802 73.91173157 15.14686584 73.20571899 C15.15246763 71.01503145 15.16502031 68.82444576 15.17773438 66.63378906 C15.18274915 65.14941554 15.1873121 63.66504041 15.19140625 62.18066406 C15.2024376 58.54000591 15.21970338 54.89940742 15.24023438 51.25878906 C14.4485083 51.27973633 13.65678223 51.30068359 12.84106445 51.32226562 C9.2450842 51.40554373 5.64930702 51.45748798 2.05273438 51.50878906 C0.80685547 51.54230469 -0.43902344 51.57582031 -1.72265625 51.61035156 C-2.92470703 51.62324219 -4.12675781 51.63613281 -5.36523438 51.64941406 C-6.47020264 51.67036133 -7.5751709 51.69130859 -8.71362305 51.71289062 C-12.47335065 51.15241188 -14.09542864 49.92342679 -16.75976562 47.25878906 C-17.98823163 43.57339106 -17.94122346 40.14154379 -17.96289062 36.30175781 C-17.9685907 35.52117508 -17.97429077 34.74059235 -17.98016357 33.93635559 C-17.98960512 32.2846512 -17.9961442 30.63292805 -18 28.98120117 C-18.0096898 26.4659702 -18.04071363 23.95156215 -18.07226562 21.43652344 C-18.07879776 19.8291064 -18.08404741 18.22168353 -18.08789062 16.61425781 C-18.10023743 15.86718063 -18.11258423 15.12010345 -18.12530518 14.35038757 C-18.10517177 9.5831293 -17.48033856 6.21029152 -14.75976562 2.25878906 C-10.1058186 -0.40640116 -5.20244485 -0.02292844 0 0 Z M0.24023438 18.25878906 C0.24023438 23.20878906 0.24023438 28.15878906 0.24023438 33.25878906 C5.19023437 33.25878906 10.14023437 33.25878906 15.24023438 33.25878906 C15.24023438 28.30878906 15.24023438 23.35878906 15.24023438 18.25878906 C10.29023438 18.25878906 5.34023438 18.25878906 0.24023438 18.25878906 Z M33.24023438 18.25878906 C33.24023438 23.20878906 33.24023438 28.15878906 33.24023438 33.25878906 C38.19023437 33.25878906 43.14023437 33.25878906 48.24023438 33.25878906 C48.24023438 28.30878906 48.24023438 23.35878906 48.24023438 18.25878906 C43.29023438 18.25878906 38.34023438 18.25878906 33.24023438 18.25878906 Z M66.24023438 18.25878906 C66.24023438 23.20878906 66.24023438 28.15878906 66.24023438 33.25878906 C71.19023437 33.25878906 76.14023437 33.25878906 81.24023438 33.25878906 C81.24023438 28.30878906 81.24023438 23.35878906 81.24023438 18.25878906 C76.29023438 18.25878906 71.34023438 18.25878906 66.24023438 18.25878906 Z " fill="#000000" transform="translate(396.759765625,411.7412109375)"/>
<path d="M0 0 C1.40698242 1.68969727 1.40698242 1.68969727 2.85546875 4.06640625 C3.39147705 4.93668457 3.92748535 5.80696289 4.47973633 6.70361328 C5.04329834 7.6470459 5.60686035 8.59047852 6.1875 9.5625 C6.76975342 10.52397949 7.35200684 11.48545898 7.9519043 12.47607422 C23.15346348 37.76488593 34.10964131 64.52723309 40.375 93.4375 C40.6136377 94.53698975 40.85227539 95.63647949 41.09814453 96.76928711 C44.49088398 113.29509283 45.40923787 129.48233739 45.375 146.3125 C45.37445618 147.32201721 45.37391235 148.33153442 45.37335205 149.37164307 C45.33257156 165.88708953 44.40494321 181.78933935 41 198 C40.79101074 199.01529785 40.58202148 200.0305957 40.36669922 201.07666016 C35.78004096 222.66315739 28.49482426 243.9235502 18.25732422 263.49609375 C16.84356723 266.31152903 15.58952746 269.18091645 14.31640625 272.0625 C8.64109411 284.04203323 8.64109411 284.04203323 4 288 C-3.11496317 290.49315828 -10.7368965 289.39844325 -18 288 C-15.64474694 283.80571373 -13.20490545 279.70775689 -10.60131836 275.66381836 C23.80168215 221.9737684 34.84147083 157.73670784 21.8125 95.375 C15.48520219 67.10118523 4.27967461 36.86694906 -13.91796875 13.9453125 C-15 12 -15 12 -15.01171875 10.0078125 C-13.50867182 7.02493171 -11.33086113 5.66753939 -8.625 3.75 C-7.64789063 3.04359375 -6.67078125 2.3371875 -5.6640625 1.609375 C-3 0 -3 0 0 0 Z " fill="#000000" transform="translate(467,109)"/>
<path d="M0 0 C0.43570313 0.37511719 0.87140625 0.75023438 1.3203125 1.13671875 C5.18607599 4.45859777 9.07657648 7.74642927 13 11 C12.4221768 15.71287046 10.30011281 19.3183501 8 23.375 C-20.56470384 75.83373923 -25.51139691 140.97754869 -9.13623047 198.00830078 C-1.4184814 223.62370216 10.001037 247.23833022 25.1640625 269.25390625 C27 272 27 272 27 273 C19.75794497 274.18353023 12.11475315 275.2314871 5 273 C-0.11687839 268.87364695 -2.47975894 262.47344584 -4.93115234 256.5390625 C-6.18448968 253.5617422 -7.65764813 250.75360065 -9.18041992 247.90795898 C-19.87463227 227.64728759 -27.05942474 205.99188566 -31.8125 183.625 C-32.00739014 182.71210205 -32.20228027 181.7992041 -32.40307617 180.85864258 C-35.62435085 164.82609302 -36.40818633 149.00076121 -36.375 132.6875 C-36.37445618 131.67798279 -36.37391235 130.66846558 -36.37335205 129.62835693 C-36.33257156 113.11291047 -35.40494321 97.21066065 -32 81 C-31.79101074 79.98470215 -31.58202148 78.9694043 -31.36669922 77.92333984 C-25.63657994 50.95529533 -16.04411425 22.68489001 0 0 Z " fill="#000000" transform="translate(36,124)"/>
<path d="M0 0 C1.45341293 0.00323273 1.45341293 0.00323273 2.93618774 0.00653076 C46.86887188 0.16316966 87.87460942 11.35164775 126.5625 32.125 C127.42262695 32.58108643 128.28275391 33.03717285 129.16894531 33.50708008 C129.96139648 33.94431396 130.75384766 34.38154785 131.5703125 34.83203125 C132.27043457 35.21464111 132.97055664 35.59725098 133.69189453 35.99145508 C135.73738604 37.53944872 136.4719625 38.96331554 137.4375 41.3125 C136.15139867 43.2954888 134.85900861 45.27383376 133.5625 47.25 C132.84320313 48.35214844 132.12390625 49.45429687 131.3828125 50.58984375 C129.4375 53.3125 129.4375 53.3125 127.4375 54.3125 C124.72675646 52.92503939 122.12442099 51.47475906 119.5 49.9375 C62.19707112 17.45039477 -2.84633957 10.36910889 -66.25390625 27.5703125 C-74.03497603 29.74918286 -81.54696885 32.31876883 -89.0234375 35.39453125 C-91.5625 36.3125 -91.5625 36.3125 -94.5625 36.3125 C-95.56946568 34.21165791 -96.5678589 32.10670511 -97.5625 30 C-98.119375 28.82824219 -98.67625 27.65648437 -99.25 26.44921875 C-100.5625 23.3125 -100.5625 23.3125 -100.5625 20.3125 C-83.52629735 13.03238737 -66.39232037 7.80355192 -48.25 4.0625 C-47.52361328 3.91135742 -46.79722656 3.76021484 -46.04882812 3.60449219 C-30.73379064 0.62619473 -15.56288905 -0.06238968 0 0 Z " fill="#000000" transform="translate(255.5625,-0.31250000000000006)"/>
<path d="M0 0 C0.969375 0.886875 1.93875 1.77375 2.9375 2.6875 C6.94518469 6.14494929 11.30561573 8.59426112 16 11 C13.30328856 14.2084961 9.81958215 15.81821672 6.125 17.625 C5.06986206 18.14223633 5.06986206 18.14223633 3.9934082 18.66992188 C1.66915159 19.79505902 -0.66332689 20.90089292 -3 22 C-3.7822998 22.36963867 -4.56459961 22.73927734 -5.37060547 23.12011719 C-26.45817831 32.95157233 -48.95886315 39.68840363 -72 43 C-73.20027832 43.17587646 -74.40055664 43.35175293 -75.63720703 43.53295898 C-87.29990446 45.13220504 -98.86629348 45.35843146 -110.625 45.3125 C-111.59455627 45.31067719 -112.56411255 45.30885437 -113.56304932 45.30697632 C-127.89479259 45.26162737 -141.90895512 44.84295422 -156 42 C-157.35279053 41.73461426 -157.35279053 41.73461426 -158.73291016 41.46386719 C-179.49266095 37.29824746 -199.99934849 31.50032575 -219 22 C-219 15.73 -219 9.46 -219 3 C-215.49341512 3.70131698 -213.20110782 4.20765908 -210.09375 5.6015625 C-209.36124023 5.92342529 -208.62873047 6.24528809 -207.87402344 6.5769043 C-207.0905957 6.92277588 -206.30716797 7.26864746 -205.5 7.625 C-147.65673867 32.4205676 -82.78211813 33.63047537 -24 11 C-15.85645499 7.64717418 -7.86738365 3.95558215 0 0 Z " fill="#000000" transform="translate(367,467)"/>
<path d="M0 0 C2.37966008 1.63692652 4.42102351 3.22256058 6.5625 5.125 C7.12646484 5.599375 7.69042969 6.07375 8.27148438 6.5625 C13.84668512 11.38781994 17.42926865 16.25853892 18.5625 23.6875 C18.30927083 41.01962988 0.33162066 59.34508061 -11 71 C-11.53713623 71.55977539 -12.07427246 72.11955078 -12.62768555 72.69628906 C-16.63968273 76.81133122 -20.83071015 80.44261469 -25.4375 83.875 C-26.1183667 84.38458252 -26.7992334 84.89416504 -27.50073242 85.41918945 C-48.98721399 101.15330712 -48.98721399 101.15330712 -62 100 C-70.62357826 97.47239948 -75.54191618 90.7775363 -80.93359375 83.9921875 C-82.32594741 81.39108725 -82.34408991 79.93079853 -82 77 C-79.39504256 73.3228214 -76.07546942 70.28792725 -72.875 67.125 C-72.0190625 66.23296875 -71.163125 65.3409375 -70.28125 64.421875 C-69.44335938 63.58398438 -68.60546875 62.74609375 -67.7421875 61.8828125 C-66.9776123 61.11340332 -66.21303711 60.34399414 -65.42529297 59.55126953 C-63 58 -63 58 -59.81176758 58.15551758 C-56.62923497 59.11135506 -55.77540632 59.9575707 -53.8125 62.5625 C-51.67426054 64.85650525 -50.50526351 65.88192628 -47.42578125 66.6015625 C-37.90118418 66.89380955 -30.69035338 63.38799694 -23.79296875 57 C-17.99257365 50.52984251 -15.44626363 43.20050736 -15.43359375 34.59765625 C-16.33921355 30.44429647 -19.02302686 28.46941774 -22.25 25.88671875 C-24 24 -24 24 -24.3581543 21.67236328 C-23.8804962 18.10832408 -22.53672095 16.8912355 -20.01953125 14.35546875 C-19.18486328 13.51435547 -18.35019531 12.67324219 -17.49023438 11.80664062 C-16.16475586 10.51016602 -16.16475586 10.51016602 -14.8125 9.1875 C-13.94818359 8.30384766 -13.08386719 7.42019531 -12.19335938 6.50976562 C-10.93168945 5.25776367 -10.93168945 5.25776367 -9.64453125 3.98046875 C-8.87471924 3.21629639 -8.10490723 2.45212402 -7.31176758 1.66479492 C-4.56628017 -0.31233874 -3.31130042 -0.53051945 0 0 Z " fill="#000000" transform="translate(478,16)"/>
<path d="M0 0 C3.49641528 1.62720997 6.59413962 3.69526418 9.8125 5.8125 C23.70548154 14.59770915 39.49852756 17.39666091 55.75 17.3125 C57.4657019 17.30404053 57.4657019 17.30404053 59.21606445 17.29541016 C76.46897143 17.0483635 93.22294593 13.27288253 106.94921875 2.3203125 C109 1 109 1 113 1 C121.85055404 8.23401449 127.38597765 20.12874235 130 31 C130 32.65 130 34.3 130 36 C81.16 36 32.32 36 -18 36 C-16.38957231 21.50615077 -10.63825973 10.06230299 0 0 Z " fill="#000000" transform="translate(200,361)"/>
<path d="M0 0 C30.69 0 61.38 0 93 0 C91.16357418 3.67285163 89.71089305 5.5553331 86.88916016 8.41723633 C86.04132965 9.28105423 85.19349915 10.14487213 84.31997681 11.03486633 C82.94342422 12.41946297 82.94342422 12.41946297 81.5390625 13.83203125 C80.5873573 14.79270571 79.63572878 15.75345613 78.68417358 16.71427917 C76.6922449 18.72266792 74.69599067 20.72664767 72.69726562 22.72827148 C70.13405864 25.29688156 67.58742597 27.88128601 65.04441261 30.46986866 C63.08659422 32.45737668 61.1176702 34.43358858 59.14545822 36.40680504 C57.74178341 37.81674244 56.34976948 39.23825771 54.95791626 40.65986633 C53.67671402 41.93195198 53.67671402 41.93195198 52.36962891 43.22973633 C51.62065338 43.9837825 50.87167786 44.73782867 50.1000061 45.51472473 C48 47 48 47 46.00772095 46.99319458 C43.34093464 45.67396857 41.61177211 43.98580104 39.50683594 41.87915039 C38.62622498 41.00476822 37.74561401 40.13038605 36.83831787 39.22950745 C35.88669385 38.26919721 34.935387 37.30857258 33.984375 36.34765625 C33.00411219 35.36687475 32.02333075 34.38661135 31.04205322 33.40684509 C28.98974368 31.35444592 26.9426944 29.29698327 24.89941406 27.2355957 C22.27599109 24.58944102 19.64159069 21.95455014 17.00341415 19.32311344 C14.97849199 17.30152651 12.95857838 15.27499673 10.94025421 13.24682426 C9.97031703 12.27303046 8.99901872 11.30059047 8.02635956 10.32951546 C6.67115906 8.97468436 5.3231822 7.6126391 3.97558594 6.25024414 C3.20599548 5.4760463 2.43640503 4.70184845 1.64349365 3.90419006 C0 2 0 2 0 0 Z " fill="#000000" transform="translate(28,412)"/>
<path d="M0 0 C1.11228972 0.9457431 2.22348623 1.892772 3.33422852 2.84033203 C3.95314468 3.36756866 4.57206085 3.8948053 5.20973206 4.4380188 C7.5563298 6.48538918 9.75278049 8.65666942 11.9375 10.875 C12.70964844 11.65617187 13.48179688 12.43734375 14.27734375 13.2421875 C14.84582031 13.82226562 15.41429687 14.40234375 16 15 C18.93230193 13.67879172 20.98664899 12.25361803 23.234375 9.9609375 C24.09482422 9.09082031 24.09482422 9.09082031 24.97265625 8.203125 C25.55917969 7.59984375 26.14570312 6.9965625 26.75 6.375 C27.35199219 5.76398438 27.95398438 5.15296875 28.57421875 4.5234375 C30.05405305 3.02011376 31.52764676 1.51065144 33 0 C39.30701232 5.16686375 45.03454818 10.88187028 50.78198242 16.65161133 C52.45442194 18.32947684 54.13222544 20.00184826 55.81054688 21.67382812 C56.8727172 22.7366581 57.9345779 23.79979761 58.99609375 24.86328125 C59.49910507 25.36426834 60.00211639 25.86525543 60.52037048 26.38142395 C64 29.88500684 64 29.88500684 64 31 C33.31 31 2.62 31 -29 31 C-26.87202123 26.74404245 -24.23675128 23.98205261 -20.8984375 20.703125 C-20.30197418 20.10949158 -19.70551086 19.51585815 -19.0909729 18.90423584 C-17.1903019 17.01473373 -15.28278526 15.13231608 -13.375 13.25 C-12.08287532 11.96790935 -10.79120324 10.68536239 -9.5 9.40234375 C-6.33855521 6.26291568 -3.1709539 3.12982199 0 0 Z " fill="#000000" transform="translate(57,465)"/>
<path d="M0 0 C0.08975098 0.59200195 0.17950195 1.18400391 0.27197266 1.79394531 C2.46011389 15.93647705 5.4248854 29.43826183 10 43 C10.22913086 43.69641602 10.45826172 44.39283203 10.69433594 45.11035156 C13.82822376 54.53020887 17.9800481 63.17806666 22.74902344 71.88305664 C23.16958008 72.65125732 23.59013672 73.41945801 24.0234375 74.2109375 C24.40419434 74.89462402 24.78495117 75.57831055 25.17724609 76.28271484 C26 78 26 78 26 80 C23.71125827 81.33858524 21.41930344 82.67101014 19.125 84 C18.47402344 84.3815625 17.82304688 84.763125 17.15234375 85.15625 C12.2265625 88 12.2265625 88 10 88 C-4.03239717 62.89402009 -19.01932886 30.56053702 -18 1 C-15.56348622 0.63737003 -13.12623023 0.28461036 -10.6875 -0.0625 C-9.99720703 -0.16626953 -9.30691406 -0.27003906 -8.59570312 -0.37695312 C-5.30415164 -0.83808836 -3.19783876 -1.06594625 0 0 Z " fill="#000000" transform="translate(52,280)"/>
<path d="M0 0 C2.8712936 0.25568326 5.70565708 0.56806088 8.5625 0.9375 C9.36880859 1.03740234 10.17511719 1.13730469 11.00585938 1.24023438 C13.00452132 1.48858882 15.00234487 1.7436731 17 2 C16.28858903 32.0732821 4.02744783 63.30601076 -11 89 C-16.96652354 87.42986223 -21.82909025 84.24970218 -27 81 C-26.75878418 80.50298584 -26.51756836 80.00597168 -26.26904297 79.49389648 C-14.54242915 55.25164562 -4.98962602 30.8512273 -1.45703125 3.984375 C-1 1 -1 1 0 0 Z " fill="#000000" transform="translate(461,279)"/>
<path d="M0 0 C11.67262143 0.47321438 22.70143914 3.17535978 34 6 C34.75474609 6.18546387 35.50949219 6.37092773 36.28710938 6.56201172 C50.80316439 10.2045037 64.67465025 16.23676729 78 23 C77.40165275 27.14298667 75.99335715 30.18194377 73.9375 33.8125 C73.38964844 34.78832031 72.84179688 35.76414063 72.27734375 36.76953125 C71.85582031 37.50558594 71.43429687 38.24164063 71 39 C66.16510832 38.34458246 62.18140308 36.35684712 57.8125 34.3125 C42.1596782 27.21983996 26.42954164 22.94740867 9.60888672 19.53710938 C5.72846461 18.7382203 1.86497277 17.87031117 -2 17 C-1.34 11.39 -0.68 5.78 0 0 Z " fill="#000000" transform="translate(281,34)"/>
<path d="M0 0 C19.81133147 46.47138732 19.81133147 46.47138732 19 70 C16.18820232 70.3607927 13.37581501 70.7139278 10.5625 71.0625 C9.76005859 71.16626953 8.95761719 71.27003906 8.13085938 71.37695312 C6.09192132 71.62644343 4.04604939 71.81780318 2 72 C0.44453334 70.44453334 0.55993117 68.72724857 0.23828125 66.57421875 C-2.45421993 49.40544195 -6.7008217 33.27650086 -13.08349609 17.10961914 C-14.400893 13.75873177 -15.42608506 10.55827261 -16 7 C-13.71070947 5.82845707 -11.41881638 4.66261926 -9.125 3.5 C-8.47402344 3.16613281 -7.82304687 2.83226562 -7.15234375 2.48828125 C-2.2265625 0 -2.2265625 0 0 0 Z " fill="#000000" transform="translate(459,161)"/>
<path d="M0 0 C3.98886486 1.25163795 7.65718567 2.7158521 11.375 4.625 C12.68597656 5.29402344 12.68597656 5.29402344 14.0234375 5.9765625 C15.00183594 6.48316406 15.00183594 6.48316406 16 7 C15.43008448 10.80437114 14.20203964 14.1277502 12.72753906 17.66992188 C5.62931279 34.77535936 1.60321593 52.70898281 -1 71 C-4.77955857 72.25985286 -7.84423452 71.64024579 -11.6875 71.0625 C-12.7403418 70.91264648 -12.7403418 70.91264648 -13.81445312 70.75976562 C-15.54386527 70.51270675 -17.2720627 70.25717148 -19 70 C-18.43123548 45.95677261 -9.93877849 21.6614403 0 0 Z " fill="#000000" transform="translate(53,161)"/>
<path d="M0 0 C0 19.8 0 39.6 0 60 C-4.25595755 57.87202123 -7.01794739 55.23675128 -10.296875 51.8984375 C-10.89050842 51.30197418 -11.48414185 50.70551086 -12.09576416 50.0909729 C-13.98526627 48.1903019 -15.86768392 46.28278526 -17.75 44.375 C-19.03209065 43.08287532 -20.31463761 41.79120324 -21.59765625 40.5 C-24.73708432 37.33855521 -27.87017801 34.1709539 -31 31 C-29.34505714 26.73294513 -26.15086959 23.8628007 -22.96875 20.703125 C-22.37703003 20.10949158 -21.78531006 19.51585815 -21.17565918 18.90423584 C-19.92734419 17.65456282 -18.67651177 16.40740008 -17.42333984 15.16259766 C-15.49992003 13.24992048 -13.58743901 11.32676881 -11.67578125 9.40234375 C-10.46157861 8.18946202 -9.24675607 6.97720048 -8.03125 5.765625 C-7.45725464 5.18758118 -6.88325928 4.60953735 -6.29187012 4.01397705 C-2.22993434 0 -2.22993434 0 0 0 Z " fill="#000000" transform="translate(133,424)"/>
<path d="M0 0 C4.49743967 3.85494829 8.78742339 7.64599107 12.93359375 11.8359375 C13.4563942 12.36015289 13.97919464 12.88436829 14.51783752 13.42446899 C16.16012345 15.0722787 17.7988665 16.72355901 19.4375 18.375 C20.56161467 19.50413955 21.68596174 20.63304778 22.81054688 21.76171875 C25.54305235 24.50515188 28.27239009 27.25169985 31 30 C25.95678592 36.13011366 20.43836272 41.74781541 14.83056641 47.35473633 C13.23440256 48.95311913 11.64644686 50.55938146 10.05859375 52.16601562 C9.04475921 53.18277887 8.03045365 54.19907272 7.015625 55.21484375 C6.10071289 56.13386475 5.18580078 57.05288574 4.24316406 57.99975586 C2 60 2 60 0 60 C0 40.2 0 20.4 0 0 Z " fill="#000000" transform="translate(16,424)"/>
<path d="M0 0 C0.3607927 2.81179768 0.7139278 5.62418499 1.0625 8.4375 C1.16626953 9.23994141 1.27003906 10.04238281 1.37695312 10.86914062 C1.62644343 12.90807868 1.81780318 14.95395061 2 17 C0.44453334 18.55546666 -1.27275143 18.44006883 -3.42578125 18.76171875 C-16.02786713 20.74161115 -27.94665345 23.50796808 -40.08300781 27.41943359 C-42.36389011 28.11020513 -44.64982878 28.6083048 -47 29 C-48.00419637 26.5433053 -49.00350501 24.08481647 -50 21.625 C-50.28617188 20.92632812 -50.57234375 20.22765625 -50.8671875 19.5078125 C-53 14.2265625 -53 14.2265625 -53 12 C-36.5970712 6.04088354 -17.64721886 -0.53476421 0 0 Z " fill="#000000" transform="translate(231,34)"/>
<path d="M0 0 C0.86044922 0.23783203 0.86044922 0.23783203 1.73828125 0.48046875 C3.61090792 0.99480172 5.48477746 1.50461608 7.359375 2.01171875 C9.27280306 2.53113645 11.18590914 3.05184838 13.09570312 3.58447266 C24.65272285 6.80739482 36.12881532 9.25548899 48 11 C49.25985286 14.77955857 48.64024579 17.84423452 48.0625 21.6875 C47.96259766 22.38939453 47.86269531 23.09128906 47.75976562 23.81445312 C47.51270675 25.54386527 47.25717148 27.2720627 47 29 C28.87035975 28.57112679 10.91943742 23.14676191 -6 17 C-4.33846988 11.14340094 -2.52958084 5.5409866 0 0 Z " fill="#000000" transform="translate(184,449)"/>
<path d="M0 0 C1.00419637 2.4566947 2.00350501 4.91518353 3 7.375 C3.28617187 8.07367188 3.57234375 8.77234375 3.8671875 9.4921875 C6 14.7734375 6 14.7734375 6 17 C-10.91943742 23.14676191 -28.87035975 28.57112679 -47 29 C-47.3607927 26.18820232 -47.7139278 23.37581501 -48.0625 20.5625 C-48.2181543 19.35883789 -48.2181543 19.35883789 -48.37695312 18.13085938 C-48.62644343 16.09192132 -48.81780318 14.04604939 -49 12 C-47.45037254 10.45037254 -45.75509198 10.5613127 -43.609375 10.23828125 C-29.97839201 8.08539786 -13.26506757 0 0 0 Z " fill="#000000" transform="translate(328,449)"/>
<path d="M0 0 C5.28 0 10.56 0 16 0 C17.53190797 3.06381594 17.10243613 6.26965866 17.0625 9.625 C17.041875 12.05875 17.02125 14.4925 17 17 C11.06 17 5.12 17 -1 17 C-1.020625 14.56625 -1.04125 12.1325 -1.0625 9.625 C-1.071604 8.86010254 -1.08070801 8.09520508 -1.09008789 7.30712891 C-1.11111111 2.22222222 -1.11111111 2.22222222 0 0 Z " fill="#000000" transform="translate(248,462)"/>
<path d="M0 0 C2.43375 0.020625 4.8675 0.04125 7.375 0.0625 C7.375 6.0025 7.375 11.9425 7.375 18.0625 C3.724375 18.0934375 3.724375 18.0934375 0 18.125 C-1.14734619 18.13865601 -1.14734619 18.13865601 -2.31787109 18.15258789 C-7.40277778 18.17361111 -7.40277778 18.17361111 -9.625 17.0625 C-9.625 11.7825 -9.625 6.5025 -9.625 1.0625 C-6.56118406 -0.46940797 -3.35534134 -0.03993613 0 0 Z " fill="#000000" transform="translate(471.625,246.9375)"/>
<path d="M0 0 C2.43375 -0.020625 4.8675 -0.04125 7.375 -0.0625 C8.13989746 -0.071604 8.90479492 -0.08070801 9.69287109 -0.09008789 C14.77777778 -0.11111111 14.77777778 -0.11111111 17 1 C17 6.28 17 11.56 17 17 C13.93618406 18.53190797 10.73034134 18.10243613 7.375 18.0625 C4.94125 18.041875 2.5075 18.02125 0 18 C0 12.06 0 6.12 0 0 Z " fill="#000000" transform="translate(33,247)"/>
<path d="M0 0 C5.94 0 11.88 0 18 0 C18.020625 2.43375 18.04125 4.8675 18.0625 7.375 C18.071604 8.13989746 18.08070801 8.90479492 18.09008789 9.69287109 C18.11111111 14.77777778 18.11111111 14.77777778 17 17 C11.72 17 6.44 17 1 17 C-0.53190797 13.93618406 -0.10243613 10.73034134 -0.0625 7.375 C-0.041875 4.94125 -0.02125 2.5075 0 0 Z " fill="#000000" transform="translate(247,33)"/>
</svg>
