<svg xmlns="http://www.w3.org/2000/svg" xmlns:xlink="http://www.w3.org/1999/xlink" width="1366" zoomAndPan="magnify" viewBox="0 0 1024.5 576" height="768" preserveAspectRatio="xMidYMid meet" version="1.0"><defs><clipPath id="b63018c792"><path d="M 0 0.140625 L 1024 0.140625 L 1024 575.859375 L 0 575.859375 Z M 0 0.140625 " clip-rule="nonzero"/></clipPath><clipPath id="0a3f990b06"><path d="M 0 0.140625 L 195 0.140625 L 195 253 L 0 253 Z M 0 0.140625 " clip-rule="nonzero"/></clipPath><clipPath id="8554e41ad0"><path d="M 0 0.140625 L 98 0.140625 L 98 163 L 0 163 Z M 0 0.140625 " clip-rule="nonzero"/></clipPath><clipPath id="67108a57bf"><path d="M 844 322 L 1024 322 L 1024 575.859375 L 844 575.859375 Z M 844 322 " clip-rule="nonzero"/></clipPath><clipPath id="eebad6d984"><path d="M 937 409 L 1024 409 L 1024 575.859375 L 937 575.859375 Z M 937 409 " clip-rule="nonzero"/></clipPath><clipPath id="ccad0e257f"><path d="M 0 261.144531 L 57 261.144531 L 57 518 L 0 518 Z M 0 261.144531 " clip-rule="nonzero"/></clipPath><clipPath id="bda24e1f27"><path d="M 0 421 L 178 421 L 178 575.859375 L 0 575.859375 Z M 0 421 " clip-rule="nonzero"/></clipPath><clipPath id="43276faad6"><path d="M 967 58 L 1024 58 L 1024 314.847656 L 967 314.847656 Z M 967 58 " clip-rule="nonzero"/></clipPath><clipPath id="3ec6775e41"><path d="M 866 0.140625 L 1024 0.140625 L 1024 168 L 866 168 Z M 866 0.140625 " clip-rule="nonzero"/></clipPath></defs><g clip-path="url(#b63018c792)"><path fill="#ffffff" d="M 0 0.140625 L 1024 0.140625 L 1024 575.859375 L 0 575.859375 Z M 0 0.140625 " fill-opacity="1" fill-rule="nonzero"/><path fill="#d7bcfd" d="M 0 0.140625 L 1024 0.140625 L 1024 575.859375 L 0 575.859375 Z M 0 0.140625 " fill-opacity="1" fill-rule="nonzero"/></g><g clip-path="url(#0a3f990b06)"><path fill="#2946bf" d="M 188.746094 -35.847656 C 211.125 14.511719 161.515625 187.292969 101.683594 222.65625 C 41.851562 258.015625 0.96875 260.777344 -58.9375 238.992188 C -118.847656 217.207031 -162.339844 163.046875 -170.472656 108.511719 C -178.601562 53.976562 -194.941406 -24.957031 -135.109375 -73.96875 C -75.277344 -122.984375 -69.757812 -142.007812 -45.285156 -144.695312 C -20.816406 -147.378906 55.355469 -161.03125 109.816406 -125.671875 C 164.277344 -90.308594 166.960938 -84.863281 188.746094 -35.847656 Z M 188.746094 -35.847656 " fill-opacity="1" fill-rule="nonzero"/></g><g clip-path="url(#8554e41ad0)"><path fill="#ffc897" d="M 93.847656 -44.277344 C 109.890625 -8.242188 74.378906 115.449219 31.554688 140.8125 C -11.265625 166.179688 -40.511719 168.121094 -83.410156 152.527344 C -126.304688 136.933594 -157.417969 98.140625 -163.234375 59.046875 C -169.054688 19.957031 -180.765625 -36.519531 -137.945312 -71.582031 C -95.121094 -106.644531 -91.167969 -120.222656 -73.636719 -122.164062 C -56.105469 -124.105469 -1.570312 -133.875 37.375 -108.511719 C 76.316406 -83.144531 78.257812 -79.339844 93.847656 -44.277344 Z M 93.847656 -44.277344 " fill-opacity="1" fill-rule="nonzero"/></g><g clip-path="url(#67108a57bf)"><path fill="#fc5f22" d="M 849.808594 600.820312 C 828.257812 552.332031 876.027344 385.972656 933.636719 351.921875 C 991.246094 317.875 1030.609375 315.214844 1088.289062 336.191406 C 1145.972656 357.167969 1187.847656 409.316406 1195.679688 461.824219 C 1203.507812 514.335938 1219.238281 590.332031 1161.628906 637.527344 C 1104.023438 684.71875 1098.707031 703.039062 1075.144531 705.625 C 1051.585938 708.210938 978.242188 721.355469 925.804688 687.304688 C 873.371094 653.257812 870.785156 648.015625 849.808594 600.820312 Z M 849.808594 600.820312 " fill-opacity="1" fill-rule="nonzero"/></g><g clip-path="url(#eebad6d984)"><path fill="#2946bf" d="M 941.179688 608.9375 C 925.734375 574.242188 959.925781 455.144531 1001.160156 430.722656 C 1042.390625 406.300781 1070.546875 404.433594 1111.851562 419.445312 C 1153.15625 434.457031 1183.109375 471.808594 1188.710938 509.449219 C 1194.3125 547.089844 1205.59375 601.464844 1164.359375 635.226562 C 1123.128906 668.988281 1119.320312 682.0625 1102.441406 683.929688 C 1085.5625 685.796875 1033.050781 695.207031 995.554688 670.785156 C 958.058594 646.363281 956.191406 642.699219 941.179688 608.9375 Z M 941.179688 608.9375 " fill-opacity="1" fill-rule="nonzero"/></g><g clip-path="url(#ccad0e257f)"><path fill="#2946bf" d="M -26.058594 261.84375 C -26.058594 261.84375 -32.679688 356.378906 -30.859375 378.574219 C -29.039062 400.765625 -35.664062 486.402344 -35.664062 486.402344 C -35.664062 486.402344 -36.777344 512.285156 -35.664062 514.867188 C -34.550781 517.445312 -23.074219 519.769531 3.464844 511.78125 C 30.007812 503.792969 37.839844 473.511719 39.660156 468.710938 C 41.480469 463.90625 53.3125 403.34375 54.070312 383.019531 C 54.828125 362.699219 57.761719 288.082031 55.890625 274.785156 C 55.890625 274.785156 45.527344 270.386719 16.003906 265.585938 C -13.519531 260.78125 -26.058594 261.84375 -26.058594 261.84375 Z M -26.058594 261.84375 " fill-opacity="1" fill-rule="nonzero"/></g><g clip-path="url(#bda24e1f27)"><path fill="#ff1abf" d="M 120.535156 422.132812 C 120.535156 422.132812 96.277344 419.4375 61.765625 430.027344 C 10.265625 445.765625 -24.867188 493.65625 -36.417969 508.191406 C -47.972656 522.726562 -69.726562 580.914062 -36.417969 625.148438 C -3.113281 669.378906 43.574219 671.210938 95.074219 646.953125 C 146.574219 622.695312 167.171875 567.582031 176.269531 507.566406 C 185.367188 447.546875 147.199219 423.960938 120.535156 422.132812 Z M 172.902344 508.480469 C 164.09375 566.910156 144.070312 620.574219 94.109375 644.207031 C 44.152344 667.839844 -1.1875 666.011719 -33.53125 622.933594 C -65.875 579.855469 -44.699219 523.253906 -33.53125 509.058594 C -22.367188 494.859375 11.757812 448.316406 61.765625 432.960938 C 95.265625 422.710938 118.800781 425.308594 118.800781 425.308594 C 144.648438 427.089844 181.707031 450.097656 172.902344 508.480469 Z M 172.902344 508.480469 " fill-opacity="1" fill-rule="nonzero"/></g><g clip-path="url(#43276faad6)"><path fill="#2946bf" d="M 1050.050781 314.148438 C 1050.050781 314.148438 1056.671875 219.613281 1054.851562 197.421875 C 1053.03125 175.226562 1059.65625 89.589844 1059.65625 89.589844 C 1059.65625 89.589844 1060.765625 63.707031 1059.65625 61.128906 C 1058.542969 58.550781 1047.066406 56.226562 1020.527344 64.210938 C 993.984375 72.199219 986.148438 102.480469 984.328125 107.285156 C 982.507812 112.085938 970.679688 172.648438 969.921875 192.972656 C 969.164062 213.296875 966.230469 287.914062 968.101562 301.207031 C 968.101562 301.207031 978.464844 305.605469 1007.988281 310.410156 C 1037.511719 315.210938 1050.050781 314.148438 1050.050781 314.148438 Z M 1050.050781 314.148438 " fill-opacity="1" fill-rule="nonzero"/></g><g clip-path="url(#3ec6775e41)"><path fill="#ff1abf" d="M 1041.242188 -73.316406 C 1041.242188 -73.316406 1016.984375 -76.011719 982.472656 -65.425781 C 930.976562 -49.683594 895.839844 -1.796875 884.289062 12.742188 C 872.738281 27.277344 850.980469 85.464844 884.289062 129.699219 C 917.59375 173.929688 964.28125 175.757812 1015.78125 151.5 C 1067.28125 127.242188 1087.878906 72.132812 1096.976562 12.113281 C 1106.074219 -47.90625 1067.90625 -71.488281 1041.242188 -73.316406 Z M 1093.609375 13.027344 C 1084.800781 71.460938 1064.777344 125.125 1014.816406 148.757812 C 964.859375 172.390625 919.519531 170.5625 887.175781 127.484375 C 854.832031 84.40625 876.007812 27.804688 887.175781 13.605469 C 898.34375 -0.59375 932.464844 -47.132812 982.472656 -62.488281 C 1015.972656 -72.738281 1039.507812 -70.140625 1039.507812 -70.140625 C 1065.355469 -68.359375 1102.417969 -45.351562 1093.609375 13.027344 Z M 1093.609375 13.027344 " fill-opacity="1" fill-rule="nonzero"/></g></svg>